<svg width="17" height="28" viewBox="0 0 17 28" fill="none" xmlns="http://www.w3.org/2000/svg">
<path d="M16.5666 14.3013C16.6141 14.6575 16.2991 14.6502 16.1009 14.7332C14.367 15.4559 12.9264 16.5726 11.7404 18.0132C10.2055 19.8777 9.36755 22.0676 8.85432 24.3993C8.61261 25.4975 8.47322 26.6102 8.36606 27.7277C8.3572 27.8211 8.4136 27.942 8.28226 28C8.26132 27.9114 8.22989 27.8236 8.22184 27.7341C7.98496 25.0471 7.46528 22.4358 6.17856 20.0275C4.86848 17.5757 2.96781 15.7597 0.378264 14.7066C0.0124725 14.5576 -0.0656812 14.4431 0.0487294 14.0234C0.207454 13.4392 0.184894 12.8059 0.242099 12.1936C0.430635 10.185 0.619977 8.17635 0.812541 6.16772C0.817375 6.11454 0.864106 6.06458 0.891501 6.01382C0.912449 6.10245 0.945483 6.19028 0.951123 6.27971C1.07359 8.19246 1.36929 10.0786 1.84385 11.9358C1.87366 12.0526 1.89138 12.1783 1.94859 12.2806C2.06622 12.4909 1.93409 12.926 2.31438 12.8849C2.7124 12.8414 3.11687 12.7713 3.24981 12.1976C3.76869 9.95374 4.13851 7.6897 4.35444 5.39826C4.41245 4.78593 4.46321 4.17359 4.52202 3.56205C4.52847 3.49276 4.56795 3.42669 4.59212 3.35902C4.62918 3.42589 4.69283 3.48954 4.69928 3.55964C4.74682 4.06562 4.7871 4.57241 4.82094 5.0792C4.97241 7.34808 5.29147 9.59439 5.70722 11.8286C5.75637 12.0913 5.92476 12.1348 6.1141 12.0913C6.39852 12.026 6.82554 12.1968 6.91981 11.7634C7.27271 10.1431 7.48461 8.50024 7.65301 6.85176C7.84879 4.9382 8.02686 3.02223 8.20492 1.10625C8.23312 0.799279 8.21861 0.489082 8.23151 0.180495C8.23392 0.114427 8.19605 0.0145193 8.30885 1.64977e-05C8.31852 -0.00159492 8.35478 0.115233 8.35881 0.178078C8.44421 1.36489 8.50383 2.55411 8.61502 3.7385C8.86721 6.42474 9.12181 9.11339 9.6705 11.7601C9.76155 12.2001 10.2111 12.0365 10.5125 12.0929C10.7622 12.1396 10.8428 11.9938 10.8903 11.7489C11.3198 9.52913 11.6147 7.29329 11.7686 5.03811C11.8008 4.5708 11.8274 4.10349 11.8709 3.63698C11.8798 3.54111 11.9523 3.45087 11.995 3.35821C12.1126 3.4275 12.0635 3.54513 12.0707 3.64101C12.2955 6.53592 12.6774 9.40586 13.3486 12.2355C13.4847 12.81 13.9206 12.7955 14.3122 12.9002C14.4927 12.9486 14.5104 12.7504 14.5466 12.6319C15.0027 11.1446 15.279 9.62018 15.4668 8.07886C15.5441 7.44235 15.5844 6.801 15.6464 6.16288C15.6513 6.11293 15.6972 6.067 15.7238 6.01866C15.7415 6.067 15.7713 6.11373 15.7762 6.16288C15.9405 7.87823 16.1009 9.59439 16.266 11.3106C16.3619 12.308 16.4658 13.3047 16.5658 14.3013H16.5666Z" fill="#FFA500"/>
</svg>
